# xmcd
#
# Track frame offsets:
#	150
#	12712
#	31396
#	43219
#	65308
#	79181
#	102038
#	118694
#	138428
#	152001
#	165889
#
# Disc length: 2438 seconds
# Revision: 0
# Processed by: cddbd v1.5.2PL0 Copyright (c) Steve Scherf et al.
# Submitted via: dBpowerAMP V12.0
#
DISCID=8709840b
DTITLE=Kimberley Hayes - Movin' On
DYEAR=1900
DGENRE=Country
TTITLE0=Blue Kentucky Girl
TTITLE1=You Don't Even Know Who I Am
TTITLE2=Drifter
TTITLE3=Georgia Rain
TTITLE4=Cheater Cheater
TTITLE5=How Can I Help You Say Goodbye
TTITLE6=Picture Me Without You
TTITLE7=Dancing Your Memory Away
TTITLE8=He Thinks I Still Care
TTITLE9=Play The Song
TTITLE10=To Say Goodbye
EXTD=
EXTT0=
EXTT1=
EXTT2=
EXTT3=
EXTT4=
EXTT5=
EXTT6=
EXTT7=
EXTT8=
EXTT9=
EXTT10=
PLAYORDER=
